<svg width="130" height="16" viewBox="0 0 130 16" fill="none" xmlns="http://www.w3.org/2000/svg">
<path d="M7.37008 9.30424L10.7948 0.71887H14.7602L7.37008 16L0 0.71887H3.94539L7.37008 9.30424Z" fill="url(#paint0_linear_3496_770)"/>
<path d="M18.4723 15.0963V12.2413H25.542V15.0963H18.4723ZM18.4723 3.57381V0.71887H25.542V3.57381H18.4723ZM18.4723 8.93453V6.14121H25.1414V8.93453H18.4723ZM16.2292 0.71887H19.4737V15.0963H16.2292V0.71887Z" fill="url(#paint1_linear_3496_770)"/>
<path d="M37.9697 0.71887H41.2342V15.8151L31.5409 7.00385V15.0963H28.2965V0L37.9697 8.8113V0.71887Z" fill="url(#paint2_linear_3496_770)"/>
<path d="M44.1971 0.71887H47.6819V15.0963H44.1971V0.71887ZM49.204 15.0963H46.4402V12.0154H49.0838C49.6179 12.0154 50.1319 11.9469 50.6259 11.81C51.1333 11.6731 51.5739 11.4472 51.9477 11.1322C52.3349 10.8173 52.642 10.3997 52.869 9.87933C53.096 9.34531 53.2095 8.68806 53.2095 7.90757C53.2095 7.12709 53.096 6.47668 52.869 5.95635C52.642 5.42234 52.3349 4.99786 51.9477 4.68293C51.5739 4.36799 51.1333 4.14206 50.6259 4.00513C50.1319 3.86821 49.6179 3.79974 49.0838 3.79974H46.4402V0.71887H49.204C50.7394 0.71887 52.0679 1.01326 53.1894 1.60205C54.311 2.19084 55.1788 3.01926 55.793 4.08729C56.4072 5.15533 56.7143 6.42875 56.7143 7.90757C56.7143 9.3727 56.4072 10.6461 55.793 11.7279C55.1788 12.7959 54.311 13.6243 53.1894 14.2131C52.0679 14.8019 50.7394 15.0963 49.204 15.0963Z" fill="url(#paint3_linear_3496_770)"/>
<path d="M60.4273 10.0436C60.7077 10.564 61.0215 11.0158 61.3686 11.3992C61.7291 11.7826 62.1163 12.077 62.5302 12.2824C62.9574 12.4878 63.4047 12.5905 63.872 12.5905C64.366 12.5905 64.7732 12.4673 65.0937 12.2208C65.4141 11.9606 65.5743 11.6115 65.5743 11.1733C65.5743 10.8036 65.4809 10.5092 65.294 10.2901C65.107 10.0573 64.8066 9.83825 64.3927 9.63286C63.9788 9.42747 63.4314 9.19469 62.7505 8.93453C62.4167 8.8113 62.0295 8.64014 61.5889 8.42105C61.1616 8.20197 60.7544 7.92127 60.3672 7.57895C59.98 7.22294 59.6596 6.79846 59.4059 6.30552C59.1522 5.79889 59.0254 5.18956 59.0254 4.47753C59.0254 3.62858 59.239 2.89602 59.6663 2.27985C60.1069 1.66367 60.6943 1.19812 61.4287 0.883183C62.1764 0.554557 63.0042 0.390244 63.9121 0.390244C64.8467 0.390244 65.6545 0.547711 66.3354 0.862644C67.0297 1.17758 67.6038 1.57467 68.0577 2.05391C68.5117 2.53316 68.8588 3.01926 69.0992 3.5122L66.5156 4.99101C66.3154 4.64869 66.0817 4.3543 65.8147 4.10783C65.561 3.84767 65.2739 3.64912 64.9535 3.5122C64.6464 3.36157 64.3126 3.28626 63.9521 3.28626C63.4715 3.28626 63.1043 3.39581 62.8506 3.61489C62.5969 3.82028 62.4701 4.08044 62.4701 4.39538C62.4701 4.72401 62.5903 5.01155 62.8306 5.25802C63.0843 5.50449 63.4381 5.73042 63.892 5.93582C64.3594 6.14121 64.9201 6.36029 65.5743 6.59307C66.0684 6.78477 66.529 7.0107 66.9562 7.27086C67.3835 7.51733 67.7573 7.81857 68.0778 8.17458C68.4116 8.53059 68.6719 8.94138 68.8588 9.40693C69.0458 9.87249 69.1392 10.4065 69.1392 11.009C69.1392 11.7347 68.9924 12.3851 68.6986 12.9602C68.4182 13.5216 68.031 13.994 67.537 14.3774C67.0564 14.7608 66.5023 15.0484 65.8748 15.2401C65.2606 15.4454 64.6264 15.5481 63.9722 15.5481C63.0642 15.5481 62.2164 15.3838 61.4287 15.0552C60.6543 14.7129 59.98 14.2542 59.4059 13.6791C58.8318 13.104 58.3845 12.4741 58.0641 11.7895L60.4273 10.0436Z" fill="url(#paint4_linear_3496_770)"/>
<path d="M73.6454 15.0963V12.2413H80.715V15.0963H73.6454ZM73.6454 3.57381V0.71887H80.715V3.57381H73.6454ZM73.6454 8.93453V6.14121H80.3145V8.93453H73.6454ZM71.4023 0.71887H74.6467V15.0963H71.4023V0.71887Z" fill="url(#paint5_linear_3496_770)"/>
<path d="M86.9744 8.58537H90.4792L94.8652 15.0963H90.8997L86.9744 8.58537ZM83.4696 0.71887H86.8542V15.0963H83.4696V0.71887ZM85.5925 3.65597V0.71887H88.5766C89.7782 0.71887 90.7796 0.917415 91.5807 1.31451C92.3818 1.7116 92.9893 2.26615 93.4032 2.97818C93.8171 3.67651 94.024 4.49123 94.024 5.42234C94.024 6.33975 93.8171 7.15447 93.4032 7.8665C92.9893 8.56483 92.3818 9.11254 91.5807 9.50963C90.7796 9.90672 89.7782 10.1053 88.5766 10.1053H85.5925V7.41463H88.3363C88.7902 7.41463 89.1774 7.34617 89.4978 7.20924C89.8316 7.05862 90.0853 6.84638 90.2589 6.57253C90.4324 6.28498 90.5192 5.94266 90.5192 5.54557C90.5192 5.14848 90.4324 4.81301 90.2589 4.53915C90.0853 4.2516 89.8316 4.03252 89.4978 3.8819C89.1774 3.73128 88.7902 3.65597 88.3363 3.65597H85.5925Z" fill="url(#paint6_linear_3496_770)"/>
<path d="M98.75 1.0293H100.452V13.7636H105.96V15.4067H98.75V1.0293Z" fill="#8C9CA5"/>
<path d="M107.766 1.0293H109.469V15.4067H107.766V1.0293Z" fill="#8C9CA5"/>
<path d="M111.273 2.67243V1.0293H120.186V2.67243H116.581V15.4067H114.878V2.67243H111.273Z" fill="#8C9CA5"/>
<path d="M122.926 15.4067V13.7636H129.996V15.4067H122.926ZM122.926 2.67243V1.0293H129.996V2.67243H122.926ZM122.926 8.42339V6.78026H129.595V8.42339H122.926ZM121.985 1.0293H123.687V15.4067H121.985V1.0293Z" fill="#8C9CA5"/>
<defs>
<linearGradient id="paint0_linear_3496_770" x1="94.6501" y1="-9.49751e-07" x2="92.1316" y2="21.2982" gradientUnits="userSpaceOnUse">
<stop stop-color="#5CC689"/>
<stop offset="1" stop-color="#55BFD5"/>
</linearGradient>
<linearGradient id="paint1_linear_3496_770" x1="94.6501" y1="-9.49751e-07" x2="92.1316" y2="21.2982" gradientUnits="userSpaceOnUse">
<stop stop-color="#5CC689"/>
<stop offset="1" stop-color="#55BFD5"/>
</linearGradient>
<linearGradient id="paint2_linear_3496_770" x1="94.6501" y1="-9.49751e-07" x2="92.1316" y2="21.2982" gradientUnits="userSpaceOnUse">
<stop stop-color="#5CC689"/>
<stop offset="1" stop-color="#55BFD5"/>
</linearGradient>
<linearGradient id="paint3_linear_3496_770" x1="94.6501" y1="-9.49751e-07" x2="92.1316" y2="21.2982" gradientUnits="userSpaceOnUse">
<stop stop-color="#5CC689"/>
<stop offset="1" stop-color="#55BFD5"/>
</linearGradient>
<linearGradient id="paint4_linear_3496_770" x1="94.6501" y1="-9.49751e-07" x2="92.1316" y2="21.2982" gradientUnits="userSpaceOnUse">
<stop stop-color="#5CC689"/>
<stop offset="1" stop-color="#55BFD5"/>
</linearGradient>
<linearGradient id="paint5_linear_3496_770" x1="94.6501" y1="-9.49751e-07" x2="92.1316" y2="21.2982" gradientUnits="userSpaceOnUse">
<stop stop-color="#5CC689"/>
<stop offset="1" stop-color="#55BFD5"/>
</linearGradient>
<linearGradient id="paint6_linear_3496_770" x1="94.6501" y1="-9.49751e-07" x2="92.1316" y2="21.2982" gradientUnits="userSpaceOnUse">
<stop stop-color="#5CC689"/>
<stop offset="1" stop-color="#55BFD5"/>
</linearGradient>
</defs>
</svg>
